# xmcd
#
# Track frame offsets:
#	150
#	15704
#	34829
#	57559
#	73729
#	87117
#	108499
#	126260
#	153843
#	172374
#	191210
#
# Disc length: 2778 seconds
#
# Revision: 1
# Processed by: cddbd v1.4PL0 Copyright (c) Steve Scherf et al.
# Submitted via: EasyCDDAExtractor 5.0.6
#
DISCID=9e0ad80b
DTITLE=Blue Rhythm Boys - Monday Morning Blues
DYEAR=2002
DGENRE=blues
TTITLE0=Monday Morning Blues
TTITLE1=I Got Mine
TTITLE2=Sweet Moments
TTITLE3=Place du Broukere
TTITLE4=That'll Never Happen No More
TTITLE5=St. James Infirmary
TTITLE6=Frankie and Johnny
TTITLE7=Jitterbug Waltz
TTITLE8=Russian Lullaby
TTITLE9=Richlands Women Blues
TTITLE10=Indiana
EXTD=
EXTT0=
EXTT1=
EXTT2=
EXTT3=
EXTT4=
EXTT5=
EXTT6=
EXTT7=
EXTT8=
EXTT9=
EXTT10=
PLAYORDER=
